<svg xmlns="http://www.w3.org/2000/svg" width="980" height="180" viewBox="0 0 980 180" shape-rendering="crispEdges">
  <defs>
    <style>
      .title {
        font: 800 18px system-ui, -apple-system, Segoe UI, Roboto, Arial;
        fill: #e6eef8;
      }
      .sub {
        font: 500 13px system-ui, -apple-system, Segoe UI, Roboto, Arial;
        fill: #97a6ba;
      }
      .node { opacity: 0.55; }
      
  @keyframes pulse0 {
    0% { opacity: 0.55; filter: none; }
    0.000% { opacity: 0.55; filter: none; }
    6.429% { opacity: 1.0; filter: drop-shadow(0 0 6px rgba(53,208,127,0.35)); }
    13.571% { opacity: 0.55; filter: none; }
    100% { opacity: 0.55; filter: none; }
  }
  

  @keyframes pulse1 {
    0% { opacity: 0.55; filter: none; }
    14.286% { opacity: 0.55; filter: none; }
    20.714% { opacity: 1.0; filter: drop-shadow(0 0 6px rgba(53,208,127,0.35)); }
    27.857% { opacity: 0.55; filter: none; }
    100% { opacity: 0.55; filter: none; }
  }
  

  @keyframes pulse2 {
    0% { opacity: 0.55; filter: none; }
    28.571% { opacity: 0.55; filter: none; }
    35.000% { opacity: 1.0; filter: drop-shadow(0 0 6px rgba(53,208,127,0.35)); }
    42.143% { opacity: 0.55; filter: none; }
    100% { opacity: 0.55; filter: none; }
  }
  

  @keyframes pulse3 {
    0% { opacity: 0.55; filter: none; }
    42.857% { opacity: 0.55; filter: none; }
    49.286% { opacity: 1.0; filter: drop-shadow(0 0 6px rgba(53,208,127,0.35)); }
    56.429% { opacity: 0.55; filter: none; }
    100% { opacity: 0.55; filter: none; }
  }
  

  @keyframes pulse4 {
    0% { opacity: 0.55; filter: none; }
    57.143% { opacity: 0.55; filter: none; }
    63.571% { opacity: 1.0; filter: drop-shadow(0 0 6px rgba(53,208,127,0.35)); }
    70.714% { opacity: 0.55; filter: none; }
    100% { opacity: 0.55; filter: none; }
  }
  

  @keyframes pulse5 {
    0% { opacity: 0.55; filter: none; }
    71.429% { opacity: 0.55; filter: none; }
    77.857% { opacity: 1.0; filter: drop-shadow(0 0 6px rgba(53,208,127,0.35)); }
    85.000% { opacity: 0.55; filter: none; }
    100% { opacity: 0.55; filter: none; }
  }
  

  @keyframes pulse6 {
    0% { opacity: 0.55; filter: none; }
    85.714% { opacity: 0.55; filter: none; }
    92.143% { opacity: 1.0; filter: drop-shadow(0 0 6px rgba(53,208,127,0.35)); }
    99.286% { opacity: 0.55; filter: none; }
    100% { opacity: 0.55; filter: none; }
  }
  
      .node0 { animation: pulse0 7.0s linear infinite; }
.node1 { animation: pulse1 7.0s linear infinite; }
.node2 { animation: pulse2 7.0s linear infinite; }
.node3 { animation: pulse3 7.0s linear infinite; }
.node4 { animation: pulse4 7.0s linear infinite; }
.node5 { animation: pulse5 7.0s linear infinite; }
.node6 { animation: pulse6 7.0s linear infinite; }
    </style>
  </defs>

  <rect x="22" y="22" width="936" height="136" rx="18" fill="#0b1220" stroke="#1d2840" stroke-width="2"/>
  <text x="48" y="52" class="title">DevOps Pulse</text>
  <text x="48" y="72" class="sub">calm step-by-step signal (no stats)</text>

  <g>
    <rect x="100" y="91" width="70" height="8" rx="2" fill="#2a3446" opacity="0.9" /><rect x="230" y="91" width="70" height="8" rx="2" fill="#2a3446" opacity="0.9" /><rect x="360" y="91" width="70" height="8" rx="2" fill="#2a3446" opacity="0.9" /><rect x="490" y="91" width="70" height="8" rx="2" fill="#2a3446" opacity="0.9" /><rect x="620" y="91" width="70" height="8" rx="2" fill="#2a3446" opacity="0.9" /><rect x="750" y="91" width="70" height="8" rx="2" fill="#2a3446" opacity="0.9" />
    
    <g class="node node0">
      <rect x="48" y="81" width="44" height="28" rx="6"
            fill="#35d07f" stroke="#2be38d" stroke-width="2" opacity="0.85"/>
      <rect x="54" y="87" width="4" height="4" fill="#0b1220" opacity="0.12" /><rect x="62" y="87" width="4" height="4" fill="#0b1220" opacity="0.12" /><rect x="70" y="87" width="4" height="4" fill="#0b1220" opacity="0.12" /><rect x="78" y="87" width="4" height="4" fill="#0b1220" opacity="0.12" /><rect x="58" y="91" width="4" height="4" fill="#0b1220" opacity="0.12" /><rect x="66" y="91" width="4" height="4" fill="#0b1220" opacity="0.12" /><rect x="74" y="91" width="4" height="4" fill="#0b1220" opacity="0.12" /><rect x="82" y="91" width="4" height="4" fill="#0b1220" opacity="0.12" /><rect x="54" y="95" width="4" height="4" fill="#0b1220" opacity="0.12" /><rect x="62" y="95" width="4" height="4" fill="#0b1220" opacity="0.12" /><rect x="70" y="95" width="4" height="4" fill="#0b1220" opacity="0.12" /><rect x="78" y="95" width="4" height="4" fill="#0b1220" opacity="0.12" /><rect x="58" y="99" width="4" height="4" fill="#0b1220" opacity="0.12" /><rect x="66" y="99" width="4" height="4" fill="#0b1220" opacity="0.12" /><rect x="74" y="99" width="4" height="4" fill="#0b1220" opacity="0.12" /><rect x="82" y="99" width="4" height="4" fill="#0b1220" opacity="0.12" />
    </g>
    
    <g class="node node1">
      <rect x="178" y="81" width="44" height="28" rx="6"
            fill="#263041" stroke="#3a4252" stroke-width="2" opacity="0.85"/>
      <rect x="184" y="87" width="4" height="4" fill="#0b1220" opacity="0.12" /><rect x="192" y="87" width="4" height="4" fill="#0b1220" opacity="0.12" /><rect x="200" y="87" width="4" height="4" fill="#0b1220" opacity="0.12" /><rect x="208" y="87" width="4" height="4" fill="#0b1220" opacity="0.12" /><rect x="188" y="91" width="4" height="4" fill="#0b1220" opacity="0.12" /><rect x="196" y="91" width="4" height="4" fill="#0b1220" opacity="0.12" /><rect x="204" y="91" width="4" height="4" fill="#0b1220" opacity="0.12" /><rect x="212" y="91" width="4" height="4" fill="#0b1220" opacity="0.12" /><rect x="184" y="95" width="4" height="4" fill="#0b1220" opacity="0.12" /><rect x="192" y="95" width="4" height="4" fill="#0b1220" opacity="0.12" /><rect x="200" y="95" width="4" height="4" fill="#0b1220" opacity="0.12" /><rect x="208" y="95" width="4" height="4" fill="#0b1220" opacity="0.12" /><rect x="188" y="99" width="4" height="4" fill="#0b1220" opacity="0.12" /><rect x="196" y="99" width="4" height="4" fill="#0b1220" opacity="0.12" /><rect x="204" y="99" width="4" height="4" fill="#0b1220" opacity="0.12" /><rect x="212" y="99" width="4" height="4" fill="#0b1220" opacity="0.12" />
    </g>
    
    <g class="node node2">
      <rect x="308" y="81" width="44" height="28" rx="6"
            fill="#263041" stroke="#3a4252" stroke-width="2" opacity="0.85"/>
      <rect x="314" y="87" width="4" height="4" fill="#0b1220" opacity="0.12" /><rect x="322" y="87" width="4" height="4" fill="#0b1220" opacity="0.12" /><rect x="330" y="87" width="4" height="4" fill="#0b1220" opacity="0.12" /><rect x="338" y="87" width="4" height="4" fill="#0b1220" opacity="0.12" /><rect x="318" y="91" width="4" height="4" fill="#0b1220" opacity="0.12" /><rect x="326" y="91" width="4" height="4" fill="#0b1220" opacity="0.12" /><rect x="334" y="91" width="4" height="4" fill="#0b1220" opacity="0.12" /><rect x="342" y="91" width="4" height="4" fill="#0b1220" opacity="0.12" /><rect x="314" y="95" width="4" height="4" fill="#0b1220" opacity="0.12" /><rect x="322" y="95" width="4" height="4" fill="#0b1220" opacity="0.12" /><rect x="330" y="95" width="4" height="4" fill="#0b1220" opacity="0.12" /><rect x="338" y="95" width="4" height="4" fill="#0b1220" opacity="0.12" /><rect x="318" y="99" width="4" height="4" fill="#0b1220" opacity="0.12" /><rect x="326" y="99" width="4" height="4" fill="#0b1220" opacity="0.12" /><rect x="334" y="99" width="4" height="4" fill="#0b1220" opacity="0.12" /><rect x="342" y="99" width="4" height="4" fill="#0b1220" opacity="0.12" />
    </g>
    
    <g class="node node3">
      <rect x="438" y="81" width="44" height="28" rx="6"
            fill="#263041" stroke="#3a4252" stroke-width="2" opacity="0.85"/>
      <rect x="444" y="87" width="4" height="4" fill="#0b1220" opacity="0.12" /><rect x="452" y="87" width="4" height="4" fill="#0b1220" opacity="0.12" /><rect x="460" y="87" width="4" height="4" fill="#0b1220" opacity="0.12" /><rect x="468" y="87" width="4" height="4" fill="#0b1220" opacity="0.12" /><rect x="448" y="91" width="4" height="4" fill="#0b1220" opacity="0.12" /><rect x="456" y="91" width="4" height="4" fill="#0b1220" opacity="0.12" /><rect x="464" y="91" width="4" height="4" fill="#0b1220" opacity="0.12" /><rect x="472" y="91" width="4" height="4" fill="#0b1220" opacity="0.12" /><rect x="444" y="95" width="4" height="4" fill="#0b1220" opacity="0.12" /><rect x="452" y="95" width="4" height="4" fill="#0b1220" opacity="0.12" /><rect x="460" y="95" width="4" height="4" fill="#0b1220" opacity="0.12" /><rect x="468" y="95" width="4" height="4" fill="#0b1220" opacity="0.12" /><rect x="448" y="99" width="4" height="4" fill="#0b1220" opacity="0.12" /><rect x="456" y="99" width="4" height="4" fill="#0b1220" opacity="0.12" /><rect x="464" y="99" width="4" height="4" fill="#0b1220" opacity="0.12" /><rect x="472" y="99" width="4" height="4" fill="#0b1220" opacity="0.12" />
    </g>
    
    <g class="node node4">
      <rect x="568" y="81" width="44" height="28" rx="6"
            fill="#263041" stroke="#3a4252" stroke-width="2" opacity="0.85"/>
      <rect x="574" y="87" width="4" height="4" fill="#0b1220" opacity="0.12" /><rect x="582" y="87" width="4" height="4" fill="#0b1220" opacity="0.12" /><rect x="590" y="87" width="4" height="4" fill="#0b1220" opacity="0.12" /><rect x="598" y="87" width="4" height="4" fill="#0b1220" opacity="0.12" /><rect x="578" y="91" width="4" height="4" fill="#0b1220" opacity="0.12" /><rect x="586" y="91" width="4" height="4" fill="#0b1220" opacity="0.12" /><rect x="594" y="91" width="4" height="4" fill="#0b1220" opacity="0.12" /><rect x="602" y="91" width="4" height="4" fill="#0b1220" opacity="0.12" /><rect x="574" y="95" width="4" height="4" fill="#0b1220" opacity="0.12" /><rect x="582" y="95" width="4" height="4" fill="#0b1220" opacity="0.12" /><rect x="590" y="95" width="4" height="4" fill="#0b1220" opacity="0.12" /><rect x="598" y="95" width="4" height="4" fill="#0b1220" opacity="0.12" /><rect x="578" y="99" width="4" height="4" fill="#0b1220" opacity="0.12" /><rect x="586" y="99" width="4" height="4" fill="#0b1220" opacity="0.12" /><rect x="594" y="99" width="4" height="4" fill="#0b1220" opacity="0.12" /><rect x="602" y="99" width="4" height="4" fill="#0b1220" opacity="0.12" />
    </g>
    
    <g class="node node5">
      <rect x="698" y="81" width="44" height="28" rx="6"
            fill="#263041" stroke="#3a4252" stroke-width="2" opacity="0.85"/>
      <rect x="704" y="87" width="4" height="4" fill="#0b1220" opacity="0.12" /><rect x="712" y="87" width="4" height="4" fill="#0b1220" opacity="0.12" /><rect x="720" y="87" width="4" height="4" fill="#0b1220" opacity="0.12" /><rect x="728" y="87" width="4" height="4" fill="#0b1220" opacity="0.12" /><rect x="708" y="91" width="4" height="4" fill="#0b1220" opacity="0.12" /><rect x="716" y="91" width="4" height="4" fill="#0b1220" opacity="0.12" /><rect x="724" y="91" width="4" height="4" fill="#0b1220" opacity="0.12" /><rect x="732" y="91" width="4" height="4" fill="#0b1220" opacity="0.12" /><rect x="704" y="95" width="4" height="4" fill="#0b1220" opacity="0.12" /><rect x="712" y="95" width="4" height="4" fill="#0b1220" opacity="0.12" /><rect x="720" y="95" width="4" height="4" fill="#0b1220" opacity="0.12" /><rect x="728" y="95" width="4" height="4" fill="#0b1220" opacity="0.12" /><rect x="708" y="99" width="4" height="4" fill="#0b1220" opacity="0.12" /><rect x="716" y="99" width="4" height="4" fill="#0b1220" opacity="0.12" /><rect x="724" y="99" width="4" height="4" fill="#0b1220" opacity="0.12" /><rect x="732" y="99" width="4" height="4" fill="#0b1220" opacity="0.12" />
    </g>
    
    <g class="node node6">
      <rect x="828" y="81" width="44" height="28" rx="6"
            fill="#35d07f" stroke="#2be38d" stroke-width="2" opacity="0.85"/>
      <rect x="834" y="87" width="4" height="4" fill="#0b1220" opacity="0.12" /><rect x="842" y="87" width="4" height="4" fill="#0b1220" opacity="0.12" /><rect x="850" y="87" width="4" height="4" fill="#0b1220" opacity="0.12" /><rect x="858" y="87" width="4" height="4" fill="#0b1220" opacity="0.12" /><rect x="838" y="91" width="4" height="4" fill="#0b1220" opacity="0.12" /><rect x="846" y="91" width="4" height="4" fill="#0b1220" opacity="0.12" /><rect x="854" y="91" width="4" height="4" fill="#0b1220" opacity="0.12" /><rect x="862" y="91" width="4" height="4" fill="#0b1220" opacity="0.12" /><rect x="834" y="95" width="4" height="4" fill="#0b1220" opacity="0.12" /><rect x="842" y="95" width="4" height="4" fill="#0b1220" opacity="0.12" /><rect x="850" y="95" width="4" height="4" fill="#0b1220" opacity="0.12" /><rect x="858" y="95" width="4" height="4" fill="#0b1220" opacity="0.12" /><rect x="838" y="99" width="4" height="4" fill="#0b1220" opacity="0.12" /><rect x="846" y="99" width="4" height="4" fill="#0b1220" opacity="0.12" /><rect x="854" y="99" width="4" height="4" fill="#0b1220" opacity="0.12" /><rect x="862" y="99" width="4" height="4" fill="#0b1220" opacity="0.12" />
    </g>
    
    <text x="70" y="143" text-anchor="middle" font-size="14" fill="#e6eef8">Code</text><text x="200" y="143" text-anchor="middle" font-size="14" fill="#93a1b5">API</text><text x="330" y="143" text-anchor="middle" font-size="14" fill="#93a1b5">Tests</text><text x="460" y="143" text-anchor="middle" font-size="14" fill="#93a1b5">Container</text><text x="590" y="143" text-anchor="middle" font-size="14" fill="#93a1b5">Cloud/K8s</text><text x="720" y="143" text-anchor="middle" font-size="14" fill="#93a1b5">Security</text><text x="850" y="143" text-anchor="middle" font-size="14" fill="#e6eef8">Ship</text>
  </g>
</svg>
